<svg width="345" height="79" viewBox="0 0 345 79" fill="none" xmlns="http://www.w3.org/2000/svg">
<g filter="url(#filter0_d_1_2)">
<mask id="path-1-outside-1_1_2" maskUnits="userSpaceOnUse" x="4" y="0" width="337" height="71" fill="black">
<rect fill="white" x="4" width="337" height="71"/>
<path d="M7.05425 53V6.856H16.9743V43.016H53.1343V53H7.05425ZM66.3373 53C64.5879 53 62.9879 52.5733 61.5373 51.72C60.1293 50.8667 58.9986 49.736 58.1453 48.328C57.2919 46.8773 56.8653 45.2773 56.8653 43.528V16.392C56.8653 14.6427 57.2919 13.064 58.1453 11.656C58.9986 10.2053 60.1293 9.05333 61.5373 8.2C62.9879 7.34666 64.5879 6.92 66.3373 6.92H102.817V16.904H68.8973C68.2146 16.904 67.6813 17.0747 67.2973 17.416C66.9559 17.7573 66.7853 18.2907 66.7853 19.016V40.904C66.7853 41.5867 66.9559 42.12 67.2973 42.504C67.6813 42.8453 68.2146 43.016 68.8973 43.016H102.817V53H66.3373ZM109.49 53V6.984H146.034C147.784 6.984 149.362 7.41066 150.77 8.264C152.221 9.11733 153.373 10.2693 154.226 11.72C155.122 13.1707 155.57 14.7493 155.57 16.456V28.36C155.57 30.0667 155.122 31.6453 154.226 33.096C153.373 34.5467 152.221 35.6987 150.77 36.552C149.362 37.4053 147.784 37.832 146.034 37.832L119.41 37.896V53H109.49ZM119.41 27.848H145.522V16.904H119.41V27.848ZM180.932 53V6.92H215.748C217.455 6.92 219.012 7.34666 220.42 8.2C221.871 9.05333 223.023 10.2053 223.876 11.656C224.772 13.064 225.22 14.6427 225.22 16.392V25.032C225.22 25.5867 225.178 26.12 225.092 26.632C225.05 27.1013 224.943 27.5493 224.772 27.976C225.412 28.7867 225.946 29.7253 226.372 30.792C226.799 31.8587 227.012 32.9253 227.012 33.992V43.528C227.012 45.2347 226.564 46.8133 225.668 48.264C224.815 49.7147 223.663 50.8667 222.212 51.72C220.804 52.5733 219.226 53 217.476 53H180.932ZM190.852 43.016H216.964V34.568H190.852V43.016ZM190.852 24.584H215.172V16.904H190.852V24.584ZM243.014 53C241.35 53 239.814 52.5733 238.406 51.72C236.998 50.8667 235.868 49.736 235.014 48.328C234.161 46.92 233.734 45.384 233.734 43.72V3.656H243.59V43.208H251.078V53H243.014ZM265.138 53C263.474 53 261.938 52.5733 260.53 51.72C259.122 50.8667 257.991 49.736 257.138 48.328C256.284 46.92 255.858 45.384 255.858 43.72V25.16C255.858 23.496 256.284 21.96 257.138 20.552C257.991 19.144 259.122 18.0133 260.53 17.16C261.938 16.3067 263.474 15.88 265.138 15.88H284.21C285.916 15.88 287.474 16.3067 288.882 17.16C290.29 18.0133 291.399 19.144 292.21 20.552C293.063 21.96 293.49 23.496 293.49 25.16V43.72C293.49 45.384 293.063 46.92 292.21 48.328C291.399 49.736 290.29 50.8667 288.882 51.72C287.474 52.5733 285.916 53 284.21 53H265.138ZM265.65 43.208H283.698V25.672H265.65V43.208ZM305.418 67.656V57.8H327.434V53H308.874C307.168 53 305.61 52.5733 304.202 51.72C302.794 50.8667 301.664 49.736 300.81 48.328C299.957 46.92 299.53 45.384 299.53 43.72V25.16C299.53 23.496 299.957 21.96 300.81 20.552C301.664 19.144 302.794 18.0133 304.202 17.16C305.61 16.3067 307.168 15.88 308.874 15.88H327.946C329.653 15.88 331.21 16.3067 332.618 17.16C334.026 18.0133 335.136 19.144 335.946 20.552C336.8 21.96 337.226 23.496 337.226 25.16V58.376C337.226 60.0827 336.8 61.64 335.946 63.048C335.136 64.456 334.026 65.5653 332.618 66.376C331.21 67.2293 329.653 67.656 327.946 67.656H305.418ZM309.322 43.208H327.434V25.672H309.322V43.208Z"/>
</mask>
<path d="M7.05425 53V6.856H16.9743V43.016H53.1343V53H7.05425ZM66.3373 53C64.5879 53 62.9879 52.5733 61.5373 51.72C60.1293 50.8667 58.9986 49.736 58.1453 48.328C57.2919 46.8773 56.8653 45.2773 56.8653 43.528V16.392C56.8653 14.6427 57.2919 13.064 58.1453 11.656C58.9986 10.2053 60.1293 9.05333 61.5373 8.2C62.9879 7.34666 64.5879 6.92 66.3373 6.92H102.817V16.904H68.8973C68.2146 16.904 67.6813 17.0747 67.2973 17.416C66.9559 17.7573 66.7853 18.2907 66.7853 19.016V40.904C66.7853 41.5867 66.9559 42.12 67.2973 42.504C67.6813 42.8453 68.2146 43.016 68.8973 43.016H102.817V53H66.3373ZM109.49 53V6.984H146.034C147.784 6.984 149.362 7.41066 150.77 8.264C152.221 9.11733 153.373 10.2693 154.226 11.72C155.122 13.1707 155.57 14.7493 155.57 16.456V28.36C155.57 30.0667 155.122 31.6453 154.226 33.096C153.373 34.5467 152.221 35.6987 150.77 36.552C149.362 37.4053 147.784 37.832 146.034 37.832L119.41 37.896V53H109.49ZM119.41 27.848H145.522V16.904H119.41V27.848ZM180.932 53V6.92H215.748C217.455 6.92 219.012 7.34666 220.42 8.2C221.871 9.05333 223.023 10.2053 223.876 11.656C224.772 13.064 225.22 14.6427 225.22 16.392V25.032C225.22 25.5867 225.178 26.12 225.092 26.632C225.05 27.1013 224.943 27.5493 224.772 27.976C225.412 28.7867 225.946 29.7253 226.372 30.792C226.799 31.8587 227.012 32.9253 227.012 33.992V43.528C227.012 45.2347 226.564 46.8133 225.668 48.264C224.815 49.7147 223.663 50.8667 222.212 51.72C220.804 52.5733 219.226 53 217.476 53H180.932ZM190.852 43.016H216.964V34.568H190.852V43.016ZM190.852 24.584H215.172V16.904H190.852V24.584ZM243.014 53C241.35 53 239.814 52.5733 238.406 51.72C236.998 50.8667 235.868 49.736 235.014 48.328C234.161 46.92 233.734 45.384 233.734 43.72V3.656H243.59V43.208H251.078V53H243.014ZM265.138 53C263.474 53 261.938 52.5733 260.53 51.72C259.122 50.8667 257.991 49.736 257.138 48.328C256.284 46.92 255.858 45.384 255.858 43.72V25.16C255.858 23.496 256.284 21.96 257.138 20.552C257.991 19.144 259.122 18.0133 260.53 17.16C261.938 16.3067 263.474 15.88 265.138 15.88H284.21C285.916 15.88 287.474 16.3067 288.882 17.16C290.29 18.0133 291.399 19.144 292.21 20.552C293.063 21.96 293.49 23.496 293.49 25.16V43.72C293.49 45.384 293.063 46.92 292.21 48.328C291.399 49.736 290.29 50.8667 288.882 51.72C287.474 52.5733 285.916 53 284.21 53H265.138ZM265.65 43.208H283.698V25.672H265.65V43.208ZM305.418 67.656V57.8H327.434V53H308.874C307.168 53 305.61 52.5733 304.202 51.72C302.794 50.8667 301.664 49.736 300.81 48.328C299.957 46.92 299.53 45.384 299.53 43.72V25.16C299.53 23.496 299.957 21.96 300.81 20.552C301.664 19.144 302.794 18.0133 304.202 17.16C305.61 16.3067 307.168 15.88 308.874 15.88H327.946C329.653 15.88 331.21 16.3067 332.618 17.16C334.026 18.0133 335.136 19.144 335.946 20.552C336.8 21.96 337.226 23.496 337.226 25.16V58.376C337.226 60.0827 336.8 61.64 335.946 63.048C335.136 64.456 334.026 65.5653 332.618 66.376C331.21 67.2293 329.653 67.656 327.946 67.656H305.418ZM309.322 43.208H327.434V25.672H309.322V43.208Z" fill="black"/>
<path d="M7.05425 53H4.05425V56H7.05425V53ZM7.05425 6.856V3.856H4.05425V6.856H7.05425ZM16.9743 6.856H19.9743V3.856H16.9743V6.856ZM16.9743 43.016H13.9743V46.016H16.9743V43.016ZM53.1343 43.016H56.1343V40.016H53.1343V43.016ZM53.1343 53V56H56.1343V53H53.1343ZM7.05425 53H10.0543V6.856H7.05425H4.05425V53H7.05425ZM7.05425 6.856V9.856H16.9743V6.856V3.856H7.05425V6.856ZM16.9743 6.856H13.9743V43.016H16.9743H19.9743V6.856H16.9743ZM16.9743 43.016V46.016H53.1343V43.016V40.016H16.9743V43.016ZM53.1343 43.016H50.1343V53H53.1343H56.1343V43.016H53.1343ZM53.1343 53V50H7.05425V53V56H53.1343V53ZM61.5373 51.72L59.9823 54.2856L59.9992 54.2958L60.0162 54.3058L61.5373 51.72ZM58.1453 48.328L55.5594 49.8491L55.5694 49.866L55.5797 49.8829L58.1453 48.328ZM58.1453 11.656L60.7108 13.2109L60.7211 13.194L60.7311 13.1771L58.1453 11.656ZM61.5373 8.2L60.0162 5.61419L59.9992 5.62419L59.9823 5.6344L61.5373 8.2ZM102.817 6.92H105.817V3.92H102.817V6.92ZM102.817 16.904V19.904H105.817V16.904H102.817ZM67.2973 17.416L65.3042 15.1738L65.2383 15.2323L65.1759 15.2947L67.2973 17.416ZM67.2973 42.504L65.055 44.4971L65.1723 44.629L65.3042 44.7462L67.2973 42.504ZM102.817 43.016H105.817V40.016H102.817V43.016ZM102.817 53V56H105.817V53H102.817ZM66.3373 53V50C65.1008 50 64.0293 49.7054 63.0583 49.1342L61.5373 51.72L60.0162 54.3058C61.9465 55.4413 64.0751 56 66.3373 56V53ZM61.5373 51.72L63.0922 49.1544C62.0976 48.5516 61.3136 47.7677 60.7108 46.7731L58.1453 48.328L55.5797 49.8829C56.6835 51.7043 58.1609 53.1817 59.9823 54.2856L61.5373 51.72ZM58.1453 48.328L60.7311 46.8069C60.1599 45.8359 59.8653 44.7645 59.8653 43.528H56.8653H53.8653C53.8653 45.7902 54.424 47.9188 55.5594 49.8491L58.1453 48.328ZM56.8653 43.528H59.8653V16.392H56.8653H53.8653V43.528H56.8653ZM56.8653 16.392H59.8653C59.8653 15.1552 60.1596 14.1204 60.7108 13.2109L58.1453 11.656L55.5797 10.1011C54.4242 12.0076 53.8653 14.1301 53.8653 16.392H56.8653ZM58.1453 11.656L60.7311 13.1771C61.3384 12.1446 62.1187 11.3556 63.0922 10.7656L61.5373 8.2L59.9823 5.6344C58.1398 6.7511 56.6588 8.26604 55.5594 10.1349L58.1453 11.656ZM61.5373 8.2L63.0583 10.7858C64.0293 10.2146 65.1008 9.92 66.3373 9.92V6.92V3.92C64.0751 3.92 61.9465 4.47872 60.0162 5.61419L61.5373 8.2ZM66.3373 6.92V9.92H102.817V6.92V3.92H66.3373V6.92ZM102.817 6.92H99.8173V16.904H102.817H105.817V6.92H102.817ZM102.817 16.904V13.904H68.8973V16.904V19.904H102.817V16.904ZM68.8973 16.904V13.904C67.7254 13.904 66.3966 14.2027 65.3042 15.1738L67.2973 17.416L69.2903 19.6582C69.1424 19.7898 68.9952 19.8587 68.8996 19.8893C68.8142 19.9166 68.8008 19.904 68.8973 19.904V16.904ZM67.2973 17.416L65.1759 15.2947C64.0436 16.427 63.7853 17.8899 63.7853 19.016H66.7853H69.7853C69.7853 18.8771 69.8029 18.885 69.7705 18.9863C69.7336 19.1019 69.6362 19.3197 69.4186 19.5373L67.2973 17.416ZM66.7853 19.016H63.7853V40.904H66.7853H69.7853V19.016H66.7853ZM66.7853 40.904H63.7853C63.7853 42.0759 64.0839 43.4046 65.055 44.4971L67.2973 42.504L69.5395 40.5109C69.671 40.6589 69.7399 40.806 69.7705 40.9017C69.7978 40.9871 69.7853 41.0005 69.7853 40.904H66.7853ZM67.2973 42.504L65.3042 44.7462C66.3966 45.7173 67.7254 46.016 68.8973 46.016V43.016V40.016C68.8008 40.016 68.8142 40.0034 68.8996 40.0307C68.9953 40.0613 69.1424 40.1302 69.2903 40.2618L67.2973 42.504ZM68.8973 43.016V46.016H102.817V43.016V40.016H68.8973V43.016ZM102.817 43.016H99.8173V53H102.817H105.817V43.016H102.817ZM102.817 53V50H66.3373V53V56H102.817V53ZM109.49 53H106.49V56H109.49V53ZM109.49 6.984V3.984H106.49V6.984H109.49ZM150.77 8.264L149.215 10.8296L149.232 10.8398L149.249 10.8498L150.77 8.264ZM154.226 11.72L151.64 13.2411L151.657 13.2689L151.674 13.2965L154.226 11.72ZM154.226 33.096L151.674 31.5195L151.657 31.547L151.64 31.5749L154.226 33.096ZM150.77 36.552L149.249 33.9662L149.232 33.9762L149.215 33.9864L150.77 36.552ZM146.034 37.832L146.034 34.832L146.027 34.832L146.034 37.832ZM119.41 37.896L119.403 34.896L116.41 34.9032V37.896H119.41ZM119.41 53V56H122.41V53H119.41ZM119.41 27.848H116.41V30.848H119.41V27.848ZM145.522 27.848V30.848H148.522V27.848H145.522ZM145.522 16.904H148.522V13.904H145.522V16.904ZM119.41 16.904V13.904H116.41V16.904H119.41ZM109.49 53H112.49V6.984H109.49H106.49V53H109.49ZM109.49 6.984V9.984H146.034V6.984V3.984H109.49V6.984ZM146.034 6.984V9.984C147.271 9.984 148.306 10.2784 149.215 10.8296L150.77 8.264L152.325 5.6984C150.419 4.54295 148.296 3.984 146.034 3.984V6.984ZM150.77 8.264L149.249 10.8498C150.26 11.4445 151.046 12.2301 151.64 13.2411L154.226 11.72L156.812 10.1989C155.7 8.30861 154.182 6.79015 152.291 5.6782L150.77 8.264ZM154.226 11.72L151.674 13.2965C152.277 14.2729 152.57 15.3056 152.57 16.456H155.57H158.57C158.57 14.193 157.968 12.0684 156.779 10.1435L154.226 11.72ZM155.57 16.456H152.57V28.36H155.57H158.57V16.456H155.57ZM155.57 28.36H152.57C152.57 29.5104 152.277 30.5431 151.674 31.5195L154.226 33.096L156.779 34.6725C157.968 32.7476 158.57 30.623 158.57 28.36H155.57ZM154.226 33.096L151.64 31.5749C151.046 32.5859 150.26 33.3715 149.249 33.9662L150.77 36.552L152.291 39.1378C154.182 38.0258 155.7 36.5074 156.812 34.6171L154.226 33.096ZM150.77 36.552L149.215 33.9864C148.306 34.5376 147.271 34.832 146.034 34.832V37.832V40.832C148.296 40.832 150.419 40.273 152.325 39.1176L150.77 36.552ZM146.034 37.832L146.027 34.832L119.403 34.896L119.41 37.896L119.417 40.896L146.041 40.832L146.034 37.832ZM119.41 37.896H116.41V53H119.41H122.41V37.896H119.41ZM119.41 53V50H109.49V53V56H119.41V53ZM119.41 27.848V30.848H145.522V27.848V24.848H119.41V27.848ZM145.522 27.848H148.522V16.904H145.522H142.522V27.848H145.522ZM145.522 16.904V13.904H119.41V16.904V19.904H145.522V16.904ZM119.41 16.904H116.41V27.848H119.41H122.41V16.904H119.41ZM180.932 53H177.932V56H180.932V53ZM180.932 6.92V3.92H177.932V6.92H180.932ZM220.42 8.2L218.865 10.7656L218.882 10.7758L218.899 10.7858L220.42 8.2ZM223.876 11.656L221.29 13.1771L221.317 13.2223L221.345 13.2666L223.876 11.656ZM225.092 26.632L222.133 26.1388L222.115 26.2491L222.105 26.3604L225.092 26.632ZM224.772 27.976L221.987 26.8618L221.342 28.473L222.418 29.8349L224.772 27.976ZM226.372 30.792L223.587 31.9062L223.587 31.9062L226.372 30.792ZM225.668 48.264L223.116 46.6875L223.099 46.7151L223.082 46.7429L225.668 48.264ZM222.212 51.72L220.691 49.1342L220.674 49.1442L220.657 49.1544L222.212 51.72ZM190.852 43.016H187.852V46.016H190.852V43.016ZM216.964 43.016V46.016H219.964V43.016H216.964ZM216.964 34.568H219.964V31.568H216.964V34.568ZM190.852 34.568V31.568H187.852V34.568H190.852ZM190.852 24.584H187.852V27.584H190.852V24.584ZM215.172 24.584V27.584H218.172V24.584H215.172ZM215.172 16.904H218.172V13.904H215.172V16.904ZM190.852 16.904V13.904H187.852V16.904H190.852ZM180.932 53H183.932V6.92H180.932H177.932V53H180.932ZM180.932 6.92V9.92H215.748V6.92V3.92H180.932V6.92ZM215.748 6.92V9.92C216.928 9.92 217.944 10.2071 218.865 10.7656L220.42 8.2L221.975 5.6344C220.081 4.4862 217.982 3.92 215.748 3.92V6.92ZM220.42 8.2L218.899 10.7858C219.91 11.3805 220.696 12.1661 221.29 13.1771L223.876 11.656L226.462 10.1349C225.35 8.24461 223.832 6.72616 221.941 5.6142L220.42 8.2ZM223.876 11.656L221.345 13.2666C221.92 14.1695 222.22 15.1843 222.22 16.392H225.22H228.22C228.22 14.101 227.625 11.9585 226.407 10.0454L223.876 11.656ZM225.22 16.392H222.22V25.032H225.22H228.22V16.392H225.22ZM225.22 25.032H222.22C222.22 25.4326 222.189 25.8005 222.133 26.1388L225.092 26.632L228.051 27.1252C228.166 26.4395 228.22 25.7407 228.22 25.032H225.22ZM225.092 26.632L222.105 26.3604C222.088 26.548 222.047 26.7116 221.987 26.8618L224.772 27.976L227.558 29.0902C227.839 28.3871 228.012 27.6546 228.08 26.9036L225.092 26.632ZM224.772 27.976L222.418 29.8349C222.86 30.3955 223.255 31.0775 223.587 31.9062L226.372 30.792L229.158 29.6778C228.636 28.3732 227.964 27.1778 227.127 26.1171L224.772 27.976ZM226.372 30.792L223.587 31.9062C223.883 32.646 224.012 33.3355 224.012 33.992H227.012H230.012C230.012 32.5151 229.715 31.0713 229.158 29.6778L226.372 30.792ZM227.012 33.992H224.012V43.528H227.012H230.012V33.992H227.012ZM227.012 43.528H224.012C224.012 44.6784 223.719 45.7111 223.116 46.6875L225.668 48.264L228.221 49.8405C229.41 47.9156 230.012 45.791 230.012 43.528H227.012ZM225.668 48.264L223.082 46.7429C222.488 47.7539 221.702 48.5395 220.691 49.1342L222.212 51.72L223.733 54.3058C225.624 53.1938 227.142 51.6754 228.254 49.7851L225.668 48.264ZM222.212 51.72L220.657 49.1544C219.748 49.7056 218.713 50 217.476 50V53V56C219.738 56 221.861 55.441 223.767 54.2856L222.212 51.72ZM217.476 53V50H180.932V53V56H217.476V53ZM190.852 43.016V46.016H216.964V43.016V40.016H190.852V43.016ZM216.964 43.016H219.964V34.568H216.964H213.964V43.016H216.964ZM216.964 34.568V31.568H190.852V34.568V37.568H216.964V34.568ZM190.852 34.568H187.852V43.016H190.852H193.852V34.568H190.852ZM190.852 24.584V27.584H215.172V24.584V21.584H190.852V24.584ZM215.172 24.584H218.172V16.904H215.172H212.172V24.584H215.172ZM215.172 16.904V13.904H190.852V16.904V19.904H215.172V16.904ZM190.852 16.904H187.852V24.584H190.852H193.852V16.904H190.852ZM238.406 51.72L236.851 54.2856L236.851 54.2856L238.406 51.72ZM235.014 48.328L237.58 46.7731L237.58 46.7731L235.014 48.328ZM233.734 3.656V0.655998H230.734V3.656H233.734ZM243.59 3.656H246.59V0.655998H243.59V3.656ZM243.59 43.208H240.59V46.208H243.59V43.208ZM251.078 43.208H254.078V40.208H251.078V43.208ZM251.078 53V56H254.078V53H251.078ZM243.014 53V50C241.892 50 240.895 49.7204 239.961 49.1544L238.406 51.72L236.851 54.2856C238.733 55.4263 240.808 56 243.014 56V53ZM238.406 51.72L239.961 49.1544C238.967 48.5516 238.183 47.7677 237.58 46.7731L235.014 48.328L232.449 49.8829C233.553 51.7043 235.03 53.1817 236.851 54.2856L238.406 51.72ZM235.014 48.328L237.58 46.7731C237.014 45.8392 236.734 44.8419 236.734 43.72H233.734H230.734C230.734 45.9261 231.308 48.0008 232.449 49.8829L235.014 48.328ZM233.734 43.72H236.734V3.656H233.734H230.734V43.72H233.734ZM233.734 3.656V6.656H243.59V3.656V0.655998H233.734V3.656ZM243.59 3.656H240.59V43.208H243.59H246.59V3.656H243.59ZM243.59 43.208V46.208H251.078V43.208V40.208H243.59V43.208ZM251.078 43.208H248.078V53H251.078H254.078V43.208H251.078ZM251.078 53V50H243.014V53V56H251.078V53ZM257.138 48.328L254.572 49.8829L254.572 49.8829L257.138 48.328ZM257.138 20.552L254.572 18.9971L254.572 18.9971L257.138 20.552ZM260.53 17.16L262.085 19.7256L262.085 19.7256L260.53 17.16ZM288.882 17.16L287.327 19.7256L287.327 19.7256L288.882 17.16ZM292.21 20.552L289.61 22.0489L289.627 22.0781L289.644 22.1069L292.21 20.552ZM292.21 48.328L289.644 46.7731L289.627 46.8019L289.61 46.8311L292.21 48.328ZM288.882 51.72L287.327 49.1544L287.327 49.1544L288.882 51.72ZM265.65 43.208H262.65V46.208H265.65V43.208ZM283.698 43.208V46.208H286.698V43.208H283.698ZM283.698 25.672H286.698V22.672H283.698V25.672ZM265.65 25.672V22.672H262.65V25.672H265.65ZM265.138 53V50C264.016 50 263.019 49.7204 262.085 49.1544L260.53 51.72L258.975 54.2856C260.857 55.4263 262.932 56 265.138 56V53ZM260.53 51.72L262.085 49.1544C261.09 48.5516 260.306 47.7677 259.703 46.7731L257.138 48.328L254.572 49.8829C255.676 51.7043 257.153 53.1817 258.975 54.2856L260.53 51.72ZM257.138 48.328L259.703 46.7731C259.137 45.8392 258.858 44.8419 258.858 43.72H255.858H252.858C252.858 45.9261 253.431 48.0008 254.572 49.8829L257.138 48.328ZM255.858 43.72H258.858V25.16H255.858H252.858V43.72H255.858ZM255.858 25.16H258.858C258.858 24.0381 259.137 23.0408 259.703 22.1069L257.138 20.552L254.572 18.9971C253.431 20.8792 252.858 22.9539 252.858 25.16H255.858ZM257.138 20.552L259.703 22.1069C260.306 21.1123 261.09 20.3284 262.085 19.7256L260.53 17.16L258.975 14.5944C257.153 15.6983 255.676 17.1757 254.572 18.9971L257.138 20.552ZM260.53 17.16L262.085 19.7256C263.019 19.1596 264.016 18.88 265.138 18.88V15.88V12.88C262.932 12.88 260.857 13.4537 258.975 14.5944L260.53 17.16ZM265.138 15.88V18.88H284.21V15.88V12.88H265.138V15.88ZM284.21 15.88V18.88C285.389 18.88 286.405 19.1671 287.327 19.7256L288.882 17.16L290.437 14.5944C288.542 13.4462 286.444 12.88 284.21 12.88V15.88ZM288.882 17.16L287.327 19.7256C288.308 20.3202 289.055 21.0857 289.61 22.0489L292.21 20.552L294.81 19.0551C293.743 17.2023 292.272 15.7064 290.437 14.5944L288.882 17.16ZM292.21 20.552L289.644 22.1069C290.21 23.0408 290.49 24.0381 290.49 25.16H293.49H296.49C296.49 22.9539 295.916 20.8792 294.775 18.9971L292.21 20.552ZM293.49 25.16H290.49V43.72H293.49H296.49V25.16H293.49ZM293.49 43.72H290.49C290.49 44.8419 290.21 45.8392 289.644 46.7731L292.21 48.328L294.775 49.8829C295.916 48.0008 296.49 45.9261 296.49 43.72H293.49ZM292.21 48.328L289.61 46.8311C289.055 47.7943 288.308 48.5598 287.327 49.1544L288.882 51.72L290.437 54.2856C292.272 53.1736 293.743 51.6777 294.81 49.8249L292.21 48.328ZM288.882 51.72L287.327 49.1544C286.405 49.7129 285.389 50 284.21 50V53V56C286.444 56 288.542 55.4338 290.437 54.2856L288.882 51.72ZM284.21 53V50H265.138V53V56H284.21V53ZM265.65 43.208V46.208H283.698V43.208V40.208H265.65V43.208ZM283.698 43.208H286.698V25.672H283.698H280.698V43.208H283.698ZM283.698 25.672V22.672H265.65V25.672V28.672H283.698V25.672ZM265.65 25.672H262.65V43.208H265.65H268.65V25.672H265.65ZM305.418 67.656H302.418V70.656H305.418V67.656ZM305.418 57.8V54.8H302.418V57.8H305.418ZM327.434 57.8V60.8H330.434V57.8H327.434ZM327.434 53H330.434V50H327.434V53ZM304.202 51.72L305.757 49.1544L305.757 49.1544L304.202 51.72ZM300.81 48.328L303.376 46.7731L303.376 46.7731L300.81 48.328ZM300.81 20.552L303.376 22.1069L303.376 22.1069L300.81 20.552ZM304.202 17.16L305.757 19.7256L305.757 19.7256L304.202 17.16ZM332.618 17.16L331.063 19.7256L331.063 19.7256L332.618 17.16ZM335.946 20.552L333.346 22.0489L333.363 22.0781L333.381 22.1069L335.946 20.552ZM335.946 63.048L333.381 61.4931L333.363 61.5219L333.346 61.5511L335.946 63.048ZM332.618 66.376L331.121 63.7761L331.092 63.7929L331.063 63.8104L332.618 66.376ZM309.322 43.208H306.322V46.208H309.322V43.208ZM327.434 43.208V46.208H330.434V43.208H327.434ZM327.434 25.672H330.434V22.672H327.434V25.672ZM309.322 25.672V22.672H306.322V25.672H309.322ZM305.418 67.656H308.418V57.8H305.418H302.418V67.656H305.418ZM305.418 57.8V60.8H327.434V57.8V54.8H305.418V57.8ZM327.434 57.8H330.434V53H327.434H324.434V57.8H327.434ZM327.434 53V50H308.874V53V56H327.434V53ZM308.874 53V50C307.695 50 306.679 49.7129 305.757 49.1544L304.202 51.72L302.647 54.2856C304.542 55.4338 306.64 56 308.874 56V53ZM304.202 51.72L305.757 49.1544C304.763 48.5516 303.979 47.7677 303.376 46.7731L300.81 48.328L298.245 49.8829C299.349 51.7043 300.826 53.1817 302.647 54.2856L304.202 51.72ZM300.81 48.328L303.376 46.7731C302.81 45.8392 302.53 44.8419 302.53 43.72H299.53H296.53C296.53 45.9261 297.104 48.0008 298.245 49.8829L300.81 48.328ZM299.53 43.72H302.53V25.16H299.53H296.53V43.72H299.53ZM299.53 25.16H302.53C302.53 24.0381 302.81 23.0408 303.376 22.1069L300.81 20.552L298.245 18.9971C297.104 20.8792 296.53 22.9539 296.53 25.16H299.53ZM300.81 20.552L303.376 22.1069C303.979 21.1123 304.763 20.3284 305.757 19.7256L304.202 17.16L302.647 14.5944C300.826 15.6983 299.349 17.1757 298.245 18.9971L300.81 20.552ZM304.202 17.16L305.757 19.7256C306.679 19.1671 307.695 18.88 308.874 18.88V15.88V12.88C306.64 12.88 304.542 13.4462 302.647 14.5944L304.202 17.16ZM308.874 15.88V18.88H327.946V15.88V12.88H308.874V15.88ZM327.946 15.88V18.88C329.126 18.88 330.142 19.1671 331.063 19.7256L332.618 17.16L334.173 14.5944C332.279 13.4462 330.18 12.88 327.946 12.88V15.88ZM332.618 17.16L331.063 19.7256C332.044 20.3202 332.792 21.0857 333.346 22.0489L335.946 20.552L338.546 19.0551C337.479 17.2023 336.008 15.7064 334.173 14.5944L332.618 17.16ZM335.946 20.552L333.381 22.1069C333.947 23.0408 334.226 24.0381 334.226 25.16H337.226H340.226C340.226 22.9539 339.653 20.8792 338.512 18.9971L335.946 20.552ZM337.226 25.16H334.226V58.376H337.226H340.226V25.16H337.226ZM337.226 58.376H334.226C334.226 59.5554 333.939 60.5716 333.381 61.4931L335.946 63.048L338.512 64.6029C339.66 62.7084 340.226 60.6099 340.226 58.376H337.226ZM335.946 63.048L333.346 61.5511C332.8 62.5006 332.071 63.2294 331.121 63.7761L332.618 66.376L334.115 68.9759C335.982 67.9012 337.471 66.4114 338.546 64.5449L335.946 63.048ZM332.618 66.376L331.063 63.8104C330.142 64.3689 329.126 64.656 327.946 64.656V67.656V70.656C330.18 70.656 332.279 70.0898 334.173 68.9416L332.618 66.376ZM327.946 67.656V64.656H305.418V67.656V70.656H327.946V67.656ZM309.322 43.208V46.208H327.434V43.208V40.208H309.322V43.208ZM327.434 43.208H330.434V25.672H327.434H324.434V43.208H327.434ZM327.434 25.672V22.672H309.322V25.672V28.672H327.434V25.672ZM309.322 25.672H306.322V43.208H309.322H312.322V25.672H309.322Z" fill="#FFF9F9" mask="url(#path-1-outside-1_1_2)"/>
</g>
<defs>
<filter id="filter0_d_1_2" x="0.054245" y="0.655998" width="344.172" height="78" filterUnits="userSpaceOnUse" color-interpolation-filters="sRGB">
<feFlood flood-opacity="0" result="BackgroundImageFix"/>
<feColorMatrix in="SourceAlpha" type="matrix" values="0 0 0 0 0 0 0 0 0 0 0 0 0 0 0 0 0 0 127 0" result="hardAlpha"/>
<feOffset dy="4"/>
<feGaussianBlur stdDeviation="2"/>
<feComposite in2="hardAlpha" operator="out"/>
<feColorMatrix type="matrix" values="0 0 0 0 0 0 0 0 0 0 0 0 0 0 0 0 0 0 0.25 0"/>
<feBlend mode="normal" in2="BackgroundImageFix" result="effect1_dropShadow_1_2"/>
<feBlend mode="normal" in="SourceGraphic" in2="effect1_dropShadow_1_2" result="shape"/>
</filter>
</defs>
</svg>
